<svg width="47" height="47" viewBox="0 0 47 47" fill="none" xmlns="http://www.w3.org/2000/svg">
<path d="M23.2866 46.7941C36.0739 46.7941 46.44 36.4209 46.44 23.625C46.44 10.829 36.0739 0.455872 23.2866 0.455872C10.4994 0.455872 0.133301 10.829 0.133301 23.625C0.133301 36.4209 10.4994 46.7941 23.2866 46.7941Z" fill="#F0F0F0"/>
<path d="M22.2808 23.625H46.4407C46.4407 21.5338 46.1622 19.508 45.6431 17.5809H22.2808V23.625Z" fill="#D80027"/>
<path d="M22.2808 11.5368H43.0424C41.6251 9.22242 39.8129 7.17675 37.7 5.49265H22.2808V11.5368Z" fill="#D80027"/>
<path d="M23.2873 46.7941C28.7364 46.7941 33.7449 44.9095 37.6999 41.7574H8.87476C12.8298 44.9095 17.8383 46.7941 23.2873 46.7941Z" fill="#D80027"/>
<path d="M3.53232 35.7132H43.0424C44.1803 33.8553 45.0627 31.8243 45.6431 29.6691H0.931641C1.51201 31.8243 2.39446 33.8553 3.53232 35.7132Z" fill="#D80027"/>
<path d="M10.8584 4.07406H12.9683L11.0057 5.50086L11.7554 7.80953L9.79285 6.38273L7.83034 7.80953L8.47791 5.81509C6.74991 7.25547 5.23535 8.94301 3.98725 10.8233H4.6633L3.41402 11.7315C3.21939 12.0565 3.03271 12.3865 2.85382 12.7215L3.45038 14.5588L2.33739 13.7496C2.06073 14.3362 1.80767 14.9359 1.5802 15.5482L2.23745 17.5726H4.6633L2.7007 18.9994L3.45038 21.3081L1.48786 19.8813L0.312287 20.736C0.194621 21.6825 0.133301 22.6466 0.133301 23.625H23.2866C23.2866 10.8291 23.2866 9.32059 23.2866 0.455872C18.7128 0.455872 14.449 1.78357 10.8584 4.07406ZM11.7554 21.3081L9.79285 19.8813L7.83034 21.3081L8.58002 18.9994L6.61741 17.5726H9.04326L9.79285 15.2639L10.5424 17.5726H12.9683L11.0057 18.9994L11.7554 21.3081ZM11.0057 12.2501L11.7554 14.5588L9.79285 13.132L7.83034 14.5588L8.58002 12.2501L6.61741 10.8233H9.04326L9.79285 8.51465L10.5424 10.8233H12.9683L11.0057 12.2501ZM20.0604 21.3081L18.0978 19.8813L16.1353 21.3081L16.885 18.9994L14.9224 17.5726H17.3483L18.0978 15.2639L18.8474 17.5726H21.2733L19.3107 18.9994L20.0604 21.3081ZM19.3107 12.2501L20.0604 14.5588L18.0978 13.132L16.1353 14.5588L16.885 12.2501L14.9224 10.8233H17.3483L18.0978 8.51465L18.8474 10.8233H21.2733L19.3107 12.2501ZM19.3107 5.50086L20.0604 7.80953L18.0978 6.38273L16.1353 7.80953L16.885 5.50086L14.9224 4.07406H17.3483L18.0978 1.76538L18.8474 4.07406H21.2733L19.3107 5.50086Z" fill="#0052B4"/>
</svg>
